<?xml version="1.0" standalone="no"?>
<!DOCTYPE svg PUBLIC "-//W3C//DTD SVG 20010904//EN"
 "http://www.w3.org/TR/2001/REC-SVG-20010904/DTD/svg10.dtd">
<svg version="1.0" xmlns="http://www.w3.org/2000/svg"
 width="400.000000pt" height="400.000000pt" viewBox="0 0 400.000000 400.000000"
 preserveAspectRatio="xMidYMid meet">
<metadata>
Created by potrace 1.14, written by Peter Selinger 2001-2017
</metadata>
<g transform="translate(0.000000,400.000000) scale(0.100000,-0.100000)"
fill="#000000" stroke="none">
<path d="M0 2000 l0 -2000 2000 0 2000 0 0 2000 0 2000 -2000 0 -2000 0 0
-2000z m2597 825 l90 -70 12 -125 c27 -306 34 -365 55 -446 l21 -85 53 64 c38
47 60 66 84 71 17 3 35 3 39 -1 12 -13 56 -153 70 -221 13 -71 27 -36 -112
-295 l-74 -139 -41 5 -41 4 -138 -240 -137 -241 6 -111 c4 -60 7 -145 7 -188
1 -43 4 -91 9 -106 7 -24 -2 -38 -77 -127 -78 -91 -92 -102 -171 -141 l-87
-42 -158 0 -159 -1 -91 40 c-89 39 -95 44 -173 139 l-82 97 4 90 c1 49 6 151
9 226 6 125 5 140 -12 165 -11 15 -72 121 -137 234 l-118 206 -41 -4 c-48 -5
-32 -27 -167 227 -66 126 -71 138 -65 180 7 48 62 230 74 242 4 4 25 4 48 0
35 -6 48 -15 76 -54 l33 -48 32 103 c17 56 45 184 61 284 l29 182 62 86 c34
47 64 85 66 85 3 0 60 -15 127 -34 67 -19 186 -51 265 -71 l142 -36 113 26
c62 15 174 52 252 85 77 32 143 58 146 57 4 -1 47 -33 96 -72z"/>
<path d="M1448 2434 c-20 -9 -38 -23 -41 -32 -3 -9 -24 -50 -47 -91 l-42 -73
86 47 86 47 171 -37 c94 -20 172 -35 174 -33 3 2 7 29 11 60 l6 56 -51 11
c-29 6 -105 20 -169 32 -64 11 -124 22 -132 24 -8 2 -31 -3 -52 -11z"/>
<path d="M2400 2429 c-58 -11 -138 -26 -179 -35 l-73 -16 7 -56 c4 -32 8 -59
10 -60 2 -2 80 13 174 33 l171 37 85 -46 86 -47 -41 73 c-23 40 -44 81 -47 90
-4 13 -76 52 -86 47 -1 -1 -49 -10 -107 -20z"/>
<path d="M1455 2193 c-73 -35 -70 -35 33 -7 68 18 90 13 54 -15 -21 -15 -23
-22 -16 -69 7 -58 14 -66 74 -87 l43 -15 44 36 c41 34 44 40 38 70 -5 29 -3
34 14 34 15 0 26 -17 47 -70 15 -39 28 -69 30 -68 1 2 -5 36 -14 76 l-17 74
-60 26 c-33 14 -92 31 -130 37 -69 11 -71 11 -140 -22z m149 -29 c3 -9 6 -23
6 -32 0 -12 -5 -11 -25 8 -25 23 -25 40 0 40 7 0 16 -7 19 -16z m61 -93 c3 -5
1 -12 -5 -16 -5 -3 -10 1 -10 9 0 18 6 21 15 7z"/>
<path d="M2405 2214 c-38 -6 -97 -23 -129 -36 l-60 -26 -17 -73 c-9 -41 -16
-75 -15 -77 2 -1 15 29 30 68 29 72 52 89 61 45 3 -14 7 -36 10 -50 4 -16 17
-30 39 -39 67 -28 70 -28 115 10 42 36 43 38 36 83 -4 25 -11 54 -16 64 -12
21 -14 21 73 -3 39 -11 73 -19 74 -17 2 1 -27 16 -64 33 -65 29 -69 30 -137
18z m-42 -64 c6 -23 -1 -25 -26 -6 -14 11 -15 15 -5 19 22 9 26 8 31 -13z m57
-85 c0 -8 -4 -15 -10 -15 -5 0 -10 7 -10 15 0 8 5 15 10 15 6 0 10 -7 10 -15z"/>
</g>
</svg>
